# xmcd
#
# Track frame offsets:
#	150
#	17223
#	34340
#	49505
#	65832
#	82880
#	101768
#	122593
#	139420
#	160860
#	179755
#	193117
#	211132
#	225169
#	243829
#	263561
#	297154
#
# Disc length: 3974 seconds
#
# Revision: 0
# Processed by: cddbd v1.5.1PL2 Copyright (c) Steve Scherf et al.
# Submitted via: audiograbber 1.83.01
#
DISCID=ed0f8411
DTITLE=Sound Choice - SC8653
DYEAR=1900
DGENRE=
TTITLE0=Loveless, Patty - That's The Kind Of Mood I'm In
TTITLE1=Kinleys, The - She Ain't The Girl For You
TTITLE2=Clark, Terri - A Little Gasoline
TTITLE3=McBride, Martina - There You Are
TTITLE4=Dixie Chicks - Without You
TTITLE5=Yearwood, Trisha - Real Live Woman
TTITLE6=Johnson, Carolyn Dawn - Georgia (Radio)
TTITLE7=Twain, Shania - I'm Holdin' On To Love (To Save My Life)
TTITLE8=Shedaisy - Lucky 4 You (Tonight I'm Just Me)
TTITLE9=O'Neal, Jamie - There Is No Arizona
TTITLE10=Leigh, Danni - Honey I Do
TTITLE11=Shedaisy - I Will, But
TTITLE12=Elliot, Alecia - You Wanna What
TTITLE13=Evans, Sara - Born To Fly (Radio)
TTITLE14=Wricht, Chely - She Went Out For Cigarettes
TTITLE15=Dixie Chicks - Cold Day In July
TTITLE16=x - Data Track
EXTD=
EXTT0=
EXTT1=
EXTT2=
EXTT3=
EXTT4=
EXTT5=
EXTT6=
EXTT7=
EXTT8=
EXTT9=
EXTT10=
EXTT11=
EXTT12=
EXTT13=
EXTT14=
EXTT15=
EXTT16=
PLAYORDER=
